<svg xmlns="http://www.w3.org/2000/svg" version="1.1" xmlns:xlink="http://www.w3.org/1999/xlink" xmlns:svgjs="http://svgjs.dev/svgjs" width="2000" height="1247" viewBox="0 0 2000 1247"><g transform="matrix(1,0,0,1,-1.2121212121212466,2.367111601848478)"><svg viewBox="0 0 396 247" data-background-color="#1f2937" preserveAspectRatio="xMidYMid meet" height="1247" width="2000" xmlns="http://www.w3.org/2000/svg" xmlns:xlink="http://www.w3.org/1999/xlink"><g id="tight-bounds" transform="matrix(1,0,0,1,0.2400000000000091,-0.09999999999999432)"><svg viewBox="0 0 395.52 247.2" height="247.2" width="395.52"><g><svg></svg></g><g><svg viewBox="0 0 395.52 247.2" height="247.2" width="395.52"><g transform="matrix(1,0,0,1,114.1734757457629,47.215199999999996)"><svg viewBox="0 0 167.17304850847418 152.7696" height="152.7696" width="167.17304850847418"><g><svg viewBox="0 0 244.43135999999998 223.3714191840146" height="152.7696" width="167.17304850847418"><g transform="matrix(1,0,0,1,0,138.0524982726222)"><svg viewBox="0 0 244.43135999999998 85.31892091139241" height="85.31892091139241" width="244.43135999999998"><g id="textblocktransform"><svg viewBox="0 0 244.43135999999998 85.31892091139241" height="85.31892091139241" width="244.43135999999998" id="textblock"><g><svg viewBox="0 0 244.43135999999998 85.31892091139241" height="85.31892091139241" width="244.43135999999998"><g transform="matrix(1,0,0,1,0,0)"><svg width="244.43135999999998" viewBox="-3.2 -54.4 157.98999999999998 55.15" height="85.31892091139241" data-palette-color="#ffffff"><path d="M7.3-14.55Q4.65-16.1 2.8-19.1 0.95-22.1 0.95-25.2L0.95-25.2Q0.95-28.2 2.8-30.68 4.65-33.15 8.43-34.63 12.2-36.1 17.7-36.1L17.7-36.1Q20.4-36.1 22.55-35.8 24.7-35.5 28.25-34.85L28.25-34.85Q32.5-33.95 34.7-33.95L34.7-33.95Q36.9-33.95 38.78-34.68 40.65-35.4 41.7-37L41.7-37Q41.15-34.6 39.25-33.1 37.35-31.6 33.9-31.6L33.9-31.6Q32.3-31.6 30.05-31.9 27.8-32.2 24.1-32.8L24.1-32.8Q20.5-33.4 18.23-33.7 15.95-34 14.4-34L14.4-34Q11.55-34 9.1-32.93 6.65-31.85 5.15-29.83 3.65-27.8 3.65-25.1L3.65-25.1Q3.65-22.3 5.35-19.98 7.05-17.65 10.5-15.2L10.5-15.2 10.3-14.95Q9.25-14.95 8.65-14.88 8.05-14.8 7.3-14.55L7.3-14.55ZM5.55 0.75Q3.45 0.75 1.2 0.33-1.05-0.1-2.35-0.7L-2.35-0.7Q-2.9-2.2-3.2-3.45L-3.2-3.45-2.75-3.95Q-0.95-2.2 0.83-1.45 2.6-0.7 5.25-0.7L5.25-0.7Q8.15-0.7 10.4-1.75 12.65-2.8 14.5-5.68 16.35-8.55 17.65-13.8L17.65-13.8 18.3-16.5Q20-24.4 21.5-29.45L21.5-29.45Q22.3-30.4 23.15-30.9 24-31.4 25.35-32L25.35-32 25.8-31.85Q24.6-30.25 23.5-26.38 22.4-22.5 21.15-16.9L21.15-16.9 20.4-13.7Q16.8 0.75 5.55 0.75L5.55 0.75ZM60.4-17.65Q60.9-17.5 60.9-16.65L60.9-16.65Q60.9-15.4 59.9-14.08 58.9-12.75 57.17-11.9 55.45-11.05 53.4-11.05L53.4-11.05Q50.65-11.05 48.55-12.55L48.55-12.55Q48.25-11.1 47.8-9.6L47.8-9.6Q47.65-9.05 47.15-7.08 46.65-5.1 46.45-3.55L46.45-3.55Q46.1-2.75 45.05-1.83 44-0.9 42.55-0.25 41.1 0.4 39.7 0.4L39.7 0.4Q38.15 0.4 36.7-0.4 35.25-1.2 34.32-2.55 33.4-3.9 33.4-5.55L33.4-5.55Q34.1-7.65 34.55-9.5 35-11.35 35.4-13.25L35.4-13.25 35.9-15.75Q36.15-16.9 37.25-18.03 38.35-19.15 39.92-19.88 41.5-20.6 43.1-20.6L43.1-20.6Q43.7-20.6 44.8-20.4L44.8-20.4Q44.95-21.55 45.32-22 45.7-22.45 46.55-22.45L46.55-22.45Q47.05-22.45 47.7-22.3L47.7-22.3Q47.45-20.9 47.45-19.9L47.45-19.9Q47.45-17 49.2-15 50.95-13 53.95-13L53.95-13Q56.2-13 57.82-14.2 59.45-15.4 60.4-17.65L60.4-17.65ZM44.25-4.4Q44.65-6.4 45.4-8.95L45.4-8.95Q46.4-12.3 46.7-14.35L46.7-14.35Q45.6-15.75 45.2-17.75L45.2-17.75Q45.2-17.95 45.12-18.07 45.05-18.2 44.8-18.25L44.8-18.25Q44.05-18.55 43.1-18.55L43.1-18.55Q41.25-18.55 39.9-17.55 38.55-16.55 38.2-15.15L38.2-15.15Q38.05-14.55 37.1-10.45L37.1-10.45Q36.65-8.05 36-5.7L36-5.7Q36-3.85 37.25-2.83 38.5-1.8 39.9-1.8L39.9-1.8Q41.1-1.8 42.47-2.65 43.85-3.5 44.25-4.4L44.25-4.4ZM82.69-11.7Q83.44-11.5 83.5-10.8L83.5-10.8Q83.5-9.6 81.59-6.83 79.69-4.05 76.89-1.85 74.09 0.35 71.3 0.35L71.3 0.35Q69.39 0.35 68.32-0.78 67.25-1.9 67.25-3.8L67.25-3.8Q67.25-4.45 67.34-4.85L67.34-4.85Q66.25-3.05 64.47-1.48 62.7 0.1 60.99 0.1L60.99 0.1Q59.55 0.1 58.14-1.05 56.74-2.2 56.45-3.4L56.45-3.4Q56.39-5.65 57.07-8.55 57.74-11.45 60.14-19.8L60.14-19.8Q60.45-20.75 60.84-20.75L60.84-20.75Q61.24-20.75 61.89-20.35 62.55-19.95 62.55-19.55L62.55-19.55Q62.55-19.35 62.42-19 62.3-18.65 62.24-18.45L62.24-18.45Q59.05-7.65 58.89-4.15L58.89-4.15Q59.14-3.5 59.97-2.83 60.8-2.15 61.39-2.15L61.39-2.15Q62.05-2.15 63.2-2.93 64.34-3.7 65.64-5.48 66.94-7.25 68.05-10.1L68.05-10.1Q69.34-13.55 70.94-20.2L70.94-20.2Q71.05-20.75 71.5-20.75L71.5-20.75Q71.89-20.75 72.57-20.33 73.25-19.9 73.25-19.35L73.25-19.35Q73.25-18.9 72.8-17.55 72.34-16.2 72.25-15.85L72.25-15.85Q71.05-12.35 70.32-9.68 69.59-7 69.59-4.9L69.59-4.9Q69.59-1.65 71.84-1.65L71.84-1.65Q73.3-1.65 75.19-2.88 77.09-4.1 79.07-6.4 81.05-8.7 82.69-11.7L82.69-11.7ZM106.99-54.4Q111.29-54.4 113.79-52.03 116.29-49.65 116.29-45.35L116.29-45.35 115.94-44.75Q114.84-48.15 112.49-49.78 110.14-51.4 106.84-51.4L106.84-51.4Q99.89-51.4 95.04-43.58 90.19-35.75 86.64-21L86.64-21 85.34-15.35 84.69-12.45Q86.74-15.35 89.89-18.07 93.04-20.8 94.64-20.8L94.64-20.8Q95.04-20.8 95.82-20.05 96.59-19.3 96.59-18.95L96.59-18.95Q95.64-16.2 94.34-10.9 93.04-5.6 93.04-4.15L93.04-4.15Q93.04-2.75 93.49-2.13 93.94-1.5 95.34-1.5L95.34-1.5Q97.84-1.5 100.19-3.4 102.54-5.3 104.27-7.73 105.99-10.15 106.89-12L106.89-12Q107.24-11.9 107.44-11.65 107.64-11.4 107.69-10.9L107.69-10.9 107.69-10.75Q107.69-10.15 107.29-9.35L107.29-9.35Q104.99-5.15 101.39-2.27 97.79 0.6 94.39 0.6L94.39 0.6Q92.64 0.6 91.59-0.5 90.54-1.6 90.54-3.6L90.54-3.6Q90.54-5.55 91.17-8.4 91.79-11.25 92.84-15.1L92.84-15.1Q92.79-14.85 93.39-17.15L93.39-17.15Q93.34-17.35 93.14-17.5 92.94-17.65 92.79-17.65L92.79-17.65Q92.29-17.65 90.44-16 88.59-14.35 86.69-12.05 84.79-9.75 83.84-7.75L83.84-7.75Q83.34-5.75 82.84-2.75L82.84-2.75Q82.79-2.4 82.74-2 82.69-1.6 82.59-1.2L82.59-1.2Q82.44-0.3 82.32 0.03 82.19 0.35 81.89 0.35L81.89 0.35Q81.29 0.35 80.54 0.05 79.79-0.25 79.79-0.7L79.79-0.7Q79.79-1.35 80.09-2.6L80.09-2.6 84.44-21.05Q88.09-36.65 93.74-45.53 99.39-54.4 106.99-54.4L106.99-54.4ZM131.69-17.65Q132.19-17.5 132.19-16.65L132.19-16.65Q132.19-15.4 131.19-14.08 130.19-12.75 128.47-11.9 126.74-11.05 124.69-11.05L124.69-11.05Q121.94-11.05 119.84-12.55L119.84-12.55Q119.54-11.1 119.09-9.6L119.09-9.6Q118.94-9.05 118.44-7.08 117.94-5.1 117.74-3.55L117.74-3.55Q117.39-2.75 116.34-1.83 115.29-0.9 113.84-0.25 112.39 0.4 110.99 0.4L110.99 0.4Q109.44 0.4 107.99-0.4 106.54-1.2 105.61-2.55 104.69-3.9 104.69-5.55L104.69-5.55Q105.39-7.65 105.84-9.5 106.29-11.35 106.69-13.25L106.69-13.25 107.19-15.75Q107.44-16.9 108.54-18.03 109.64-19.15 111.22-19.88 112.79-20.6 114.39-20.6L114.39-20.6Q114.99-20.6 116.09-20.4L116.09-20.4Q116.24-21.55 116.62-22 116.99-22.45 117.84-22.45L117.84-22.45Q118.34-22.45 118.99-22.3L118.99-22.3Q118.74-20.9 118.74-19.9L118.74-19.9Q118.74-17 120.49-15 122.24-13 125.24-13L125.24-13Q127.49-13 129.12-14.2 130.74-15.4 131.69-17.65L131.69-17.65ZM115.54-4.4Q115.94-6.4 116.69-8.95L116.69-8.95Q117.69-12.3 117.99-14.35L117.99-14.35Q116.89-15.75 116.49-17.75L116.49-17.75Q116.49-17.95 116.42-18.07 116.34-18.2 116.09-18.25L116.09-18.25Q115.34-18.55 114.39-18.55L114.39-18.55Q112.54-18.55 111.19-17.55 109.84-16.55 109.49-15.15L109.49-15.15Q109.34-14.55 108.39-10.45L108.39-10.45Q107.94-8.05 107.29-5.7L107.29-5.7Q107.29-3.85 108.54-2.83 109.79-1.8 111.19-1.8L111.19-1.8Q112.39-1.8 113.77-2.65 115.14-3.5 115.54-4.4L115.54-4.4ZM153.99-11.7Q154.74-11.5 154.79-10.8L154.79-10.8Q154.79-9.6 152.89-6.83 150.99-4.05 148.19-1.85 145.39 0.35 142.59 0.35L142.59 0.35Q140.69 0.35 139.61-0.78 138.54-1.9 138.54-3.8L138.54-3.8Q138.54-4.45 138.64-4.85L138.64-4.85Q137.54-3.05 135.76-1.48 133.99 0.1 132.29 0.1L132.29 0.1Q130.84 0.1 129.44-1.05 128.04-2.2 127.74-3.4L127.74-3.4Q127.69-5.65 128.36-8.55 129.04-11.45 131.44-19.8L131.44-19.8Q131.74-20.75 132.14-20.75L132.14-20.75Q132.54-20.75 133.19-20.35 133.84-19.95 133.84-19.55L133.84-19.55Q133.84-19.35 133.71-19 133.59-18.65 133.54-18.45L133.54-18.45Q130.34-7.65 130.19-4.15L130.19-4.15Q130.44-3.5 131.26-2.83 132.09-2.15 132.69-2.15L132.69-2.15Q133.34-2.15 134.49-2.93 135.64-3.7 136.94-5.48 138.24-7.25 139.34-10.1L139.34-10.1Q140.64-13.55 142.24-20.2L142.24-20.2Q142.34-20.75 142.79-20.75L142.79-20.75Q143.19-20.75 143.86-20.33 144.54-19.9 144.54-19.35L144.54-19.35Q144.54-18.9 144.09-17.55 143.64-16.2 143.54-15.85L143.54-15.85Q142.34-12.35 141.61-9.68 140.89-7 140.89-4.9L140.89-4.9Q140.89-1.65 143.14-1.65L143.14-1.65Q144.59-1.65 146.49-2.88 148.39-4.1 150.36-6.4 152.34-8.7 153.99-11.7L153.99-11.7Z" opacity="1" transform="matrix(1,0,0,1,0,0)" fill="#ffffff" class="wordmark-text-0" data-fill-palette-color="primary" id="text-0"></path></svg></g></svg></g></svg></g></svg></g><g transform="matrix(1,0,0,1,55.40074083854864,0)"><svg viewBox="0 0 133.6298783229027 117.91074869954431" height="117.91074869954431" width="133.6298783229027"><g><svg xmlns="http://www.w3.org/2000/svg" xmlns:xlink="http://www.w3.org/1999/xlink" version="1.1" x="7.999999999999993" y="0" viewBox="0.065 0.03600209388632479 23.871 23.927997906113674" style="enable-background:new 0 0 24 24;" xml:space="preserve" height="117.91074869954431" width="117.62987832290271" class="icon-icon-0" data-fill-palette-color="accent" id="icon-0"><g fill="#ffffff" data-fill-palette-color="accent"><path d="M23.535 23.163h-1.922v-2.692c0-0.203-0.165-0.368-0.368-0.368h-2.709v-5.521h1.786c0.288 0 0.521-0.233 0.521-0.521v-1.265c0-0.288-0.233-0.521-0.521-0.521h-1.786v-0.543h0.385c1.908 0 3.461-1.552 3.461-3.461V6.349h-0.961l-0.115 0.154c-0.65 0.867-1.685 1.384-2.769 1.384h-0.471V4.161h2.275c0.217 0 0.394-0.177 0.394-0.394V2.569l0.178-0.023c0.118-0.016 0.236-0.031 0.354-0.048 0.154-0.023 0.28-0.135 0.322-0.285l0.467-1.677c0.036-0.129 0.004-0.267-0.084-0.366h0c-0.089-0.099-0.223-0.142-0.354-0.129-6.382 0.965-12.853 0.965-19.234 0C2.249 0.019 2.117 0.071 2.029 0.17c-0.089 0.1-0.121 0.236-0.084 0.366l0.467 1.678C2.454 2.363 2.58 2.475 2.735 2.498 2.852 2.515 2.969 2.53 3.088 2.546l0.178 0.023v1.198c0 0.217 0.177 0.394 0.394 0.394h2.276v3.726H5.463c-1.083 0-2.118-0.517-2.769-1.385L2.579 6.349H1.618v1.923c0 1.908 1.552 3.461 3.461 3.461h0.385v0.543H3.677c-0.288 0-0.521 0.233-0.521 0.521v1.265c0 0.288 0.233 0.521 0.521 0.521h1.786v5.521H2.755c-0.203 0-0.368 0.165-0.368 0.368v2.692H0.465c-0.221 0-0.4 0.18-0.4 0.4s0.179 0.4 0.4 0.4h23.071c0.221 0 0.4-0.18 0.4-0.4S23.756 23.163 23.535 23.163zM20.844 23.163h-0.769v-2.291h0.769V23.163zM19.306 20.872v2.291h-0.769v-2.291H19.306zM7.77 20.872h0.769v2.291H7.77V20.872zM7.001 23.163H6.232v-2.291h0.769V23.163zM9.308 20.872h0.769v2.291H9.308V20.872zM10.479 20.103H7.77v-5.521h8.459v5.521h-2.709c-0.203 0-0.368 0.165-0.368 0.368v2.692h-2.307v-2.692C10.846 20.268 10.682 20.103 10.479 20.103zM16.23 11.732v2.081H7.77v-2.081H16.23zM13.923 20.872h0.769v2.291h-0.769V20.872zM15.461 20.872h0.769v2.291h-0.769V20.872zM16.999 20.872h0.769v2.291h-0.769V20.872zM20.075 13.044v0.769h-1.538v-0.769H20.075zM17.768 20.103h-0.769v-8.371h0.769V20.103zM10.271 3.135v0.239H4.052V2.673C6.089 2.924 8.18 3.079 10.271 3.135zM11.059 7.643V3.16h1.882v4.482H11.059zM8.723 5.043V4.161h1.548v0.882H8.723zM13.728 5.043V4.161h1.548v0.882H13.728zM19.948 2.673v0.701h-6.219V3.135C15.819 3.079 17.911 2.924 19.948 2.673zM21.135 0.908l-0.235 0.847c-5.905 0.821-11.894 0.821-17.799 0L2.865 0.908C8.927 1.768 15.073 1.768 21.135 0.908zM6.721 4.161h1.214v3.726H6.721V4.161zM8.723 5.829h1.548v2.058H8.723V5.829zM13.728 5.829h1.548v2.058h-1.548V5.829zM16.064 4.161h1.214v3.726h-1.214V4.161zM5.463 8.656h13.074c1.164 0 2.283-0.489 3.076-1.327v0.695c-0.906 0.854-2.078 1.333-3.329 1.333H5.716c-1.251 0-2.423-0.479-3.329-1.333V7.328C3.181 8.167 4.299 8.656 5.463 8.656zM2.545 9.144c0.928 0.635 2.022 0.982 3.171 0.982h12.568c1.149 0 2.243-0.346 3.171-0.982-0.365 1.055-1.357 1.819-2.534 1.819H5.079C3.902 10.963 2.909 10.198 2.545 9.144zM3.925 13.813v-0.769h1.538v0.769H3.925zM6.232 11.732h0.769v8.371H6.232V11.732zM5.463 23.163H4.694v-2.291h0.769V23.163zM3.156 20.872h0.769v2.291H3.156V20.872z" fill="#ffffff" data-fill-palette-color="accent"></path><circle cx="9.693" cy="12.773" r="0.39" fill="#ffffff" data-fill-palette-color="accent"></circle><circle cx="12" cy="12.773" r="0.39" fill="#ffffff" data-fill-palette-color="accent"></circle><circle cx="14.307" cy="12.773" r="0.39" fill="#ffffff" data-fill-palette-color="accent"></circle><path d="M12.385 6.187c0-0.212-0.172-0.385-0.385-0.385-0.212 0-0.385 0.172-0.385 0.385 0 0 0 0.001 0 0.001-0.002 0.016-0.01 0.03-0.01 0.047 0 0.217 0.177 0.394 0.394 0.394 0.217 0 0.394-0.177 0.394-0.394 0-0.017-0.007-0.031-0.009-0.047C12.384 6.188 12.385 6.188 12.385 6.187z" fill="#ffffff" data-fill-palette-color="accent"></path><path d="M12.385 4.519c0-0.212-0.172-0.385-0.385-0.385-0.212 0-0.385 0.172-0.385 0.385 0 0 0 0.001 0 0.001-0.002 0.016-0.01 0.03-0.01 0.047 0 0.217 0.177 0.393 0.394 0.393 0.217 0 0.394-0.176 0.394-0.393 0-0.017-0.008-0.031-0.01-0.047C12.384 4.52 12.385 4.52 12.385 4.519z" fill="#ffffff" data-fill-palette-color="accent"></path></g></svg></g></svg></g><g><rect width="16.77158509278574" height="7.694148336915748" y="109.21660036262855" x="189.03061916145134" fill="#ffffff" data-fill-palette-color="accent"></rect><rect width="16.77158509278574" height="7.694148336915748" y="109.21660036262855" x="38.6291557457629" fill="#ffffff" data-fill-palette-color="accent"></rect><rect width="16.77158509278574" height="7.694148336915748" y="93.82830368879706" x="189.03061916145134" fill="#ffffff" data-fill-palette-color="accent"></rect><rect width="16.77158509278574" height="7.694148336915748" y="93.82830368879706" x="38.6291557457629" fill="#ffffff" data-fill-palette-color="accent"></rect></g></svg></g></svg></g><g><path d="M163.964 33.44A83.587 83.587 0 0 1 231.556 33.44L226.294 33.44A78.324 78.324 0 0 0 169.226 33.44L163.964 33.44M163.964 213.76A83.587 83.587 0 0 0 231.556 213.76L226.294 213.76A78.324 78.324 0 0 1 169.226 213.76L163.964 213.76" fill="#ffffff" stroke="transparent" data-fill-palette-color="tertiary"></path></g></svg></g><defs></defs></svg><rect width="395.52" height="247.2" fill="none" stroke="none" visibility="hidden"></rect></g></svg></g></svg>